if (_typeface_js && _typeface_js.loadFace) _typeface_js.loadFace({"glyphs":{"S":{"x_min":67.515625,"x_max":621.1875,"ha":684,"o":"m 352 937 l 468 923 l 581 877 l 581 790 l 467 844 l 356 860 l 229 819 l 176 705 l 203 620 l 272 565 l 358 526 l 449 489 l 533 436 l 597 361 l 621 251 l 597 139 l 533 56 l 438 5 l 325 -11 l 236 -2 l 152 22 l 67 64 l 67 155 l 148 108 l 234 76 l 324 65 l 425 86 l 499 148 l 528 245 l 494 345 l 413 408 l 318 449 l 205 499 l 118 576 l 83 700 l 105 802 l 163 876 l 247 922 l 352 937 "},"a":{"x_min":43.40625,"x_max":627.9375,"ha":726,"o":"m 627 610 l 627 508 l 627 407 l 627 304 l 627 203 l 627 101 l 627 0 l 547 0 l 547 60 l 460 7 l 354 -11 l 255 3 l 169 48 l 102 116 l 58 203 l 43 304 l 58 407 l 101 493 l 166 562 l 251 606 l 351 622 l 458 602 l 547 548 l 547 610 l 627 610 m 362 60 l 463 82 l 547 143 l 547 250 l 547 358 l 547 465 l 463 527 l 362 549 l 269 530 l 192 477 l 141 400 l 123 304 l 141 209 l 192 132 l 269 80 l 362 60 "},"T":{"x_min":38.578125,"x_max":771.671875,"ha":810,"o":"m 771 848 l 664 848 l 558 848 l 451 848 l 451 742 l 451 636 l 451 530 l 451 424 l 451 318 l 451 212 l 451 106 l 451 0 l 358 0 l 358 106 l 358 212 l 358 318 l 358 424 l 358 530 l 358 636 l 358 742 l 358 848 l 251 848 l 145 848 l 38 848 l 38 926 l 143 926 l 247 926 l 353 926 l 457 926 l 562 926 l 666 926 l 771 926 l 771 848 "},"N":{"x_min":115.75,"x_max":899.953125,"ha":1016,"o":"m 899 0 l 797 0 l 732 87 l 666 175 l 599 264 l 534 352 l 468 439 l 403 527 l 336 616 l 271 704 l 205 791 l 205 679 l 205 565 l 205 452 l 205 339 l 205 226 l 205 112 l 205 0 l 115 0 l 115 103 l 115 205 l 115 308 l 115 411 l 115 514 l 115 617 l 115 720 l 115 822 l 115 926 l 217 926 l 282 838 l 349 750 l 414 662 l 480 574 l 546 486 l 612 398 l 678 310 l 744 222 l 810 135 l 810 247 l 810 360 l 810 473 l 810 587 l 810 700 l 810 813 l 810 926 l 899 926 l 899 822 l 899 720 l 899 617 l 899 514 l 899 411 l 899 308 l 899 205 l 899 103 l 899 0 "},"K":{"x_min":117.671875,"x_max":771.671875,"ha":789,"o":"m 210 0 l 117 0 l 117 103 l 117 205 l 117 308 l 117 411 l 117 514 l 117 617 l 117 720 l 117 822 l 117 926 l 210 926 l 210 822 l 210 720 l 210 617 l 210 514 l 210 411 l 210 308 l 210 205 l 210 103 l 210 0 m 330 493 l 404 411 l 477 328 l 550 246 l 625 164 l 698 81 l 771 0 l 653 0 l 580 81 l 509 163 l 436 245 l 365 327 l 293 409 l 221 491 l 297 578 l 372 665 l 447 752 l 522 839 l 598 926 l 713 926 l 637 839 l 560 753 l 484 666 l 407 580 l 330 493 "},"d":{"x_min":43.40625,"x_max":627.9375,"ha":726,"o":"m 627 926 l 627 822 l 627 720 l 627 617 l 627 514 l 627 411 l 627 308 l 627 205 l 627 103 l 627 0 l 547 0 l 547 61 l 458 7 l 351 -11 l 251 3 l 166 48 l 101 116 l 58 203 l 43 304 l 58 407 l 102 493 l 169 562 l 255 606 l 354 622 l 460 602 l 547 548 l 547 674 l 547 800 l 547 926 l 627 926 m 362 60 l 463 82 l 547 143 l 547 250 l 547 358 l 547 465 l 463 527 l 362 549 l 269 530 l 192 477 l 141 400 l 123 304 l 141 209 l 192 132 l 269 80 l 362 60 "},"Y":{"x_min":34.71875,"x_max":822.796875,"ha":858,"o":"m 475 452 l 475 339 l 475 225 l 475 112 l 475 0 l 382 0 l 382 112 l 382 225 l 382 339 l 382 452 l 313 546 l 244 641 l 173 736 l 104 831 l 34 926 l 150 926 l 219 828 l 290 731 l 359 633 l 430 536 l 500 633 l 570 731 l 640 828 l 710 926 l 822 926 l 753 831 l 683 736 l 614 641 l 544 546 l 475 452 "},"E":{"x_min":117.671875,"x_max":653.984375,"ha":705,"o":"m 653 848 l 543 848 l 432 848 l 321 848 l 210 848 l 210 735 l 210 622 l 210 508 l 306 508 l 403 508 l 499 508 l 596 508 l 596 434 l 499 434 l 403 434 l 306 434 l 210 434 l 210 315 l 210 195 l 210 77 l 321 77 l 432 77 l 543 77 l 653 77 l 653 0 l 546 0 l 439 0 l 331 0 l 224 0 l 117 0 l 117 103 l 117 205 l 117 308 l 117 411 l 117 514 l 117 617 l 117 720 l 117 822 l 117 926 l 224 926 l 331 926 l 439 926 l 546 926 l 653 926 l 653 848 "},"j":{"x_min":-71.375,"x_max":215.109375,"ha":321,"o":"m 160 865 l 215 810 l 160 755 l 106 810 l 160 865 m 200 578 l 200 465 l 200 354 l 200 241 l 200 129 l 200 16 l 200 -95 l 181 -202 l 125 -285 l 39 -339 l -71 -358 l -71 -285 l 25 -260 l 94 -190 l 120 -89 l 120 21 l 120 133 l 120 244 l 120 355 l 120 466 l 120 578 l 200 578 "},"y":{"x_min":36.65625,"x_max":589.359375,"ha":626,"o":"m 354 0 l 313 -105 l 272 -210 l 231 -315 l 150 -315 l 190 -210 l 231 -105 l 272 0 l 232 101 l 193 203 l 154 304 l 114 407 l 76 508 l 36 610 l 120 610 l 159 509 l 197 408 l 236 306 l 274 205 l 313 104 l 352 205 l 390 306 l 428 408 l 466 509 l 505 610 l 589 610 l 549 508 l 511 407 l 471 304 l 432 203 l 393 101 l 354 0 "},"Z":{"x_min":46.296875,"x_max":779.390625,"ha":826,"o":"m 779 848 l 710 762 l 642 677 l 574 591 l 506 505 l 437 420 l 369 334 l 301 248 l 233 163 l 164 77 l 267 77 l 369 77 l 471 77 l 574 77 l 677 77 l 779 77 l 779 0 l 674 0 l 570 0 l 464 0 l 360 0 l 255 0 l 151 0 l 46 0 l 46 77 l 114 163 l 183 248 l 251 334 l 320 420 l 387 505 l 456 591 l 524 677 l 593 762 l 661 848 l 559 848 l 456 848 l 354 848 l 251 848 l 148 848 l 46 848 l 46 926 l 151 926 l 255 926 l 360 926 l 464 926 l 570 926 l 674 926 l 779 926 l 779 848 "},"u":{"x_min":113.828125,"x_max":649.171875,"ha":768,"o":"m 649 610 l 649 508 l 649 407 l 649 304 l 649 203 l 649 101 l 649 0 l 569 0 l 569 60 l 478 7 l 372 -11 l 267 8 l 185 63 l 132 147 l 113 251 l 113 371 l 113 490 l 113 610 l 193 610 l 193 492 l 193 376 l 193 258 l 219 160 l 288 89 l 385 62 l 484 83 l 569 145 l 569 261 l 569 378 l 569 493 l 569 610 l 649 610 "},"k":{"x_min":84.890625,"x_max":641.453125,"ha":658,"o":"m 315 293 l 240 217 l 164 140 l 164 0 l 84 0 l 84 103 l 84 205 l 84 308 l 84 411 l 84 514 l 84 617 l 84 720 l 84 822 l 84 926 l 164 926 l 164 811 l 164 697 l 164 582 l 164 467 l 164 354 l 164 239 l 272 349 l 272 350 l 273 350 l 359 436 l 444 523 l 530 610 l 628 610 l 543 523 l 456 435 l 370 349 l 437 261 l 505 174 l 573 86 l 641 0 l 542 0 l 466 97 l 390 195 l 315 293 "},"g":{"x_min":43.40625,"x_max":627.9375,"ha":726,"o":"m 627 610 l 627 498 l 627 387 l 627 275 l 627 164 l 627 53 l 627 -57 l 606 -164 l 548 -248 l 463 -304 l 355 -324 l 230 -299 l 132 -233 l 132 -152 l 225 -229 l 348 -257 l 448 -230 l 520 -160 l 547 -57 l 547 77 l 458 23 l 351 3 l 251 19 l 166 60 l 101 127 l 58 212 l 43 313 l 58 413 l 102 499 l 169 565 l 255 606 l 354 622 l 460 602 l 547 548 l 547 610 l 627 610 m 362 70 l 463 91 l 547 152 l 547 259 l 547 366 l 547 473 l 463 534 l 362 555 l 269 536 l 192 485 l 141 408 l 123 313 l 141 218 l 192 140 l 269 89 l 362 70 "},"t":{"x_min":59.796875,"x_max":378.109375,"ha":421,"o":"m 186 452 l 186 354 l 186 257 l 212 156 l 281 86 l 378 61 l 378 -11 l 267 7 l 181 61 l 125 144 l 106 251 l 106 352 l 106 452 l 59 452 l 59 518 l 106 518 l 106 622 l 106 726 l 186 726 l 186 622 l 186 518 l 281 518 l 378 518 l 378 452 l 281 452 l 186 452 "},"e":{"x_min":43.40625,"x_max":681.953125,"ha":726,"o":"m 362 622 l 463 606 l 551 561 l 621 491 l 665 399 l 681 289 l 570 289 l 459 289 l 347 289 l 236 289 l 124 289 l 164 169 l 252 88 l 373 57 l 499 87 l 598 168 l 598 84 l 494 13 l 365 -11 l 261 3 l 172 48 l 104 116 l 58 203 l 43 304 l 59 407 l 105 493 l 173 562 l 261 606 l 362 622 m 125 345 l 243 345 l 361 345 l 479 345 l 598 345 l 553 459 l 470 535 l 362 563 l 249 534 l 165 457 l 125 345 "},"J":{"x_min":2.890625,"x_max":492.90625,"ha":611,"o":"m 492 926 l 492 817 l 492 709 l 492 601 l 492 493 l 492 385 l 492 277 l 471 157 l 413 66 l 324 8 l 211 -11 l 96 8 l 2 65 l 2 171 l 90 104 l 192 78 l 297 102 l 371 171 l 400 285 l 400 392 l 400 498 l 400 605 l 400 712 l 400 818 l 400 926 l 492 926 "},"W":{"x_min":69.453125,"x_max":1319.546875,"ha":1389,"o":"m 1030 0 l 937 0 l 906 99 l 876 197 l 845 297 l 816 396 l 785 495 l 755 594 l 724 693 l 694 792 l 663 693 l 633 594 l 602 495 l 572 396 l 542 297 l 512 197 l 481 99 l 451 0 l 358 0 l 327 103 l 294 205 l 262 308 l 230 411 l 197 514 l 165 617 l 134 720 l 101 822 l 69 926 l 162 926 l 191 826 l 222 727 l 252 628 l 283 529 l 313 430 l 344 330 l 374 232 l 405 133 l 435 232 l 465 330 l 495 430 l 526 529 l 556 628 l 587 727 l 617 826 l 648 926 l 740 926 l 770 826 l 801 727 l 831 628 l 862 529 l 892 430 l 923 330 l 953 232 l 983 133 l 1013 232 l 1044 330 l 1074 430 l 1105 529 l 1135 628 l 1166 727 l 1196 826 l 1226 926 l 1319 926 l 1287 822 l 1254 720 l 1223 617 l 1191 514 l 1158 411 l 1126 308 l 1094 205 l 1062 103 l 1030 0 "},"v":{"x_min":36.65625,"x_max":589.359375,"ha":626,"o":"m 354 0 l 272 0 l 232 101 l 193 203 l 154 304 l 114 407 l 76 508 l 36 610 l 120 610 l 159 509 l 197 408 l 236 307 l 274 206 l 313 105 l 352 206 l 390 307 l 428 408 l 466 509 l 505 610 l 589 610 l 549 508 l 511 407 l 471 304 l 432 203 l 393 101 l 354 0 "},"s":{"x_min":63.65625,"x_max":552.703125,"ha":611,"o":"m 306 621 l 413 608 l 516 566 l 516 489 l 409 538 l 307 553 l 203 529 l 160 456 l 209 379 l 315 348 l 425 320 l 515 267 l 552 169 l 518 70 l 429 9 l 300 -11 l 179 3 l 63 54 l 63 134 l 179 77 l 303 56 l 421 84 l 471 168 l 413 254 l 295 286 l 190 316 l 111 369 l 80 457 l 109 547 l 190 602 l 306 621 "},"B":{"x_min":117.671875,"x_max":712.828125,"ha":757,"o":"m 117 926 l 211 926 l 305 926 l 399 926 l 501 908 l 581 859 l 635 786 l 654 694 l 618 574 l 524 495 l 622 445 l 688 362 l 712 255 l 691 154 l 632 73 l 544 19 l 432 0 l 327 0 l 222 0 l 117 0 l 117 103 l 117 205 l 117 308 l 117 411 l 117 514 l 117 617 l 117 720 l 117 822 l 117 926 m 210 853 l 210 743 l 210 632 l 210 522 l 301 522 l 394 522 l 513 571 l 562 687 l 513 804 l 394 853 l 301 853 l 210 853 m 210 453 l 210 357 l 210 262 l 210 167 l 210 72 l 318 72 l 427 72 l 525 98 l 594 166 l 620 263 l 594 359 l 525 427 l 427 453 l 318 453 l 210 453 "},"H":{"x_min":117.671875,"x_max":882.59375,"ha":999,"o":"m 882 0 l 786 0 l 786 107 l 786 214 l 786 322 l 786 429 l 671 429 l 556 429 l 442 429 l 327 429 l 213 429 l 213 322 l 213 214 l 213 107 l 213 0 l 117 0 l 117 103 l 117 205 l 117 308 l 117 411 l 117 514 l 117 617 l 117 720 l 117 822 l 117 926 l 213 926 l 213 822 l 213 719 l 213 617 l 213 514 l 327 514 l 442 514 l 556 514 l 671 514 l 786 514 l 786 617 l 786 719 l 786 822 l 786 926 l 882 926 l 882 822 l 882 720 l 882 617 l 882 514 l 882 411 l 882 308 l 882 205 l 882 103 l 882 0 "},"c":{"x_min":52.09375,"x_max":590.328125,"ha":637,"o":"m 366 622 l 491 597 l 590 525 l 590 436 l 496 517 l 374 546 l 280 527 l 203 476 l 151 399 l 132 304 l 151 210 l 203 133 l 280 81 l 374 62 l 496 92 l 590 173 l 590 84 l 491 13 l 366 -11 l 266 3 l 180 48 l 111 116 l 67 203 l 52 304 l 67 407 l 111 493 l 180 562 l 266 606 l 366 622 "},"q":{"x_min":43.40625,"x_max":627.9375,"ha":726,"o":"m 627 610 l 627 507 l 627 405 l 627 301 l 627 198 l 627 96 l 627 -6 l 627 -109 l 627 -212 l 627 -315 l 547 -315 l 547 -190 l 547 -64 l 547 60 l 460 7 l 354 -11 l 255 3 l 169 48 l 102 116 l 58 203 l 43 304 l 58 407 l 101 493 l 166 562 l 251 606 l 351 622 l 458 602 l 547 548 l 547 610 l 627 610 m 362 60 l 463 82 l 547 143 l 547 250 l 547 358 l 547 465 l 463 527 l 362 549 l 269 530 l 192 477 l 141 400 l 123 304 l 141 209 l 192 132 l 269 80 l 362 60 "},"b":{"x_min":97.421875,"x_max":681.953125,"ha":726,"o":"m 371 622 l 470 606 l 556 562 l 623 493 l 666 407 l 681 304 l 666 203 l 624 116 l 558 48 l 473 3 l 374 -11 l 268 7 l 177 62 l 177 0 l 97 0 l 97 103 l 97 205 l 97 308 l 97 411 l 97 514 l 97 617 l 97 720 l 97 822 l 97 926 l 177 926 l 177 831 l 177 736 l 177 642 l 177 547 l 266 601 l 371 622 m 362 60 l 457 80 l 533 132 l 584 209 l 602 304 l 584 400 l 533 477 l 457 530 l 362 549 l 262 527 l 177 464 l 177 358 l 177 251 l 177 145 l 262 82 l 362 60 "},"D":{"x_min":117.671875,"x_max":948.1875,"ha":987,"o":"m 117 926 l 236 926 l 355 926 l 474 926 l 583 914 l 682 879 l 770 825 l 844 754 l 899 668 l 935 571 l 948 463 l 935 354 l 899 257 l 844 171 l 770 100 l 682 46 l 583 11 l 474 0 l 355 0 l 236 0 l 117 0 l 117 103 l 117 205 l 117 308 l 117 411 l 117 514 l 117 617 l 117 720 l 117 822 l 117 926 m 210 842 l 210 733 l 210 625 l 210 516 l 210 408 l 210 299 l 210 190 l 210 81 l 342 81 l 474 81 l 573 95 l 663 133 l 739 192 l 798 269 l 836 360 l 849 463 l 830 584 l 777 688 l 696 769 l 593 822 l 474 842 l 342 842 l 210 842 "},"I":{"x_min":122.5,"x_max":215.109375,"ha":337,"o":"m 215 0 l 122 0 l 122 103 l 122 205 l 122 308 l 122 411 l 122 514 l 122 617 l 122 720 l 122 822 l 122 926 l 215 926 l 215 822 l 215 720 l 215 617 l 215 514 l 215 411 l 215 308 l 215 205 l 215 103 l 215 0 "},"G":{"x_min":38.578125,"x_max":878.734375,"ha":968,"o":"m 528 937 l 624 928 l 716 901 l 803 858 l 878 798 l 878 697 l 808 761 l 725 810 l 632 841 l 533 852 l 426 839 l 330 800 l 250 739 l 190 660 l 150 567 l 136 462 l 150 356 l 190 262 l 250 183 l 329 121 l 424 81 l 530 68 l 631 82 l 724 122 l 801 184 l 800 299 l 800 413 l 707 413 l 614 413 l 520 413 l 520 484 l 640 484 l 759 484 l 878 484 l 878 367 l 878 249 l 878 133 l 803 72 l 716 27 l 622 -1 l 522 -11 l 410 0 l 308 35 l 218 91 l 144 164 l 87 252 l 51 353 l 38 463 l 51 571 l 85 670 l 141 759 l 216 832 l 306 889 l 411 925 l 528 937 "},"z":{"x_min":49.1875,"x_max":560.421875,"ha":611,"o":"m 560 538 l 491 460 l 424 382 l 355 304 l 287 227 l 219 149 l 151 72 l 253 72 l 355 72 l 458 72 l 560 72 l 560 0 l 458 0 l 355 0 l 253 0 l 151 0 l 49 0 l 49 72 l 117 149 l 186 227 l 253 304 l 322 382 l 390 460 l 459 538 l 356 538 l 253 538 l 151 538 l 49 538 l 49 610 l 151 610 l 253 610 l 355 610 l 458 610 l 560 610 l 560 538 "},"U":{"x_min":94.53125,"x_max":846.90625,"ha":941,"o":"m 846 926 l 846 813 l 846 700 l 846 588 l 846 475 l 846 362 l 827 241 l 773 137 l 692 57 l 589 6 l 470 -11 l 351 6 l 247 57 l 166 137 l 113 241 l 94 362 l 94 475 l 94 588 l 94 700 l 94 813 l 94 926 l 190 926 l 190 813 l 190 700 l 190 588 l 190 475 l 190 362 l 212 247 l 271 155 l 360 95 l 470 73 l 580 95 l 669 156 l 729 247 l 751 362 l 751 475 l 751 588 l 751 700 l 751 813 l 751 926 l 846 926 "},"w":{"x_min":36.65625,"x_max":936.609375,"ha":973,"o":"m 730 0 l 659 0 l 625 101 l 590 201 l 556 302 l 521 403 l 487 504 l 452 403 l 417 302 l 382 201 l 348 101 l 313 0 l 242 0 l 207 101 l 173 203 l 138 304 l 105 407 l 70 508 l 36 610 l 119 610 l 152 512 l 185 413 l 217 315 l 249 217 l 282 118 l 316 217 l 351 315 l 384 413 l 419 512 l 453 610 l 519 610 l 553 512 l 587 413 l 622 315 l 655 217 l 689 118 l 722 217 l 755 315 l 788 413 l 820 512 l 853 610 l 936 610 l 901 508 l 868 407 l 833 304 l 798 203 l 764 101 l 730 0 "},"F":{"x_min":117.671875,"x_max":653.984375,"ha":668,"o":"m 653 848 l 543 848 l 432 848 l 321 848 l 210 848 l 210 734 l 210 618 l 210 503 l 306 503 l 403 503 l 499 503 l 596 503 l 596 429 l 499 429 l 403 429 l 306 429 l 210 429 l 210 322 l 210 214 l 210 107 l 210 0 l 117 0 l 117 103 l 117 205 l 117 308 l 117 411 l 117 514 l 117 617 l 117 720 l 117 822 l 117 926 l 224 926 l 331 926 l 439 926 l 546 926 l 653 926 l 653 848 "},"r":{"x_min":106.109375,"x_max":586.46875,"ha":579,"o":"m 381 622 l 496 598 l 586 530 l 586 438 l 493 516 l 371 544 l 271 523 l 186 464 l 186 348 l 186 232 l 186 115 l 186 0 l 106 0 l 106 101 l 106 203 l 106 304 l 106 407 l 106 508 l 106 610 l 186 610 l 186 546 l 275 601 l 381 622 "},"x":{"x_min":36.65625,"x_max":604.796875,"ha":641,"o":"m 321 255 l 260 170 l 199 84 l 138 0 l 36 0 l 94 78 l 153 156 l 211 234 l 270 312 l 195 411 l 121 511 l 47 610 l 149 610 l 206 529 l 264 449 l 321 368 l 378 449 l 435 529 l 492 610 l 594 610 l 519 511 l 445 411 l 371 312 l 429 234 l 488 156 l 545 78 l 604 0 l 503 0 l 442 84 l 381 170 l 321 255 "},"V":{"x_min":70.421875,"x_max":887.421875,"ha":958,"o":"m 528 0 l 429 0 l 389 103 l 349 205 l 309 308 l 270 411 l 229 514 l 190 617 l 150 720 l 109 822 l 70 926 l 170 926 l 209 824 l 247 724 l 286 623 l 324 522 l 362 421 l 401 321 l 439 219 l 478 119 l 517 219 l 555 321 l 594 421 l 631 522 l 670 623 l 708 724 l 747 824 l 786 926 l 887 926 l 847 822 l 807 720 l 767 617 l 728 514 l 687 411 l 648 308 l 608 205 l 568 103 l 528 0 "},"Q":{"x_min":38.578125,"x_max":1003.171875,"ha":1042,"o":"m 1003 463 l 985 335 l 937 221 l 861 125 l 931 62 l 1003 0 l 901 0 l 809 81 l 722 31 l 626 0 l 520 -11 l 409 0 l 308 35 l 218 91 l 144 164 l 87 252 l 51 353 l 38 463 l 51 572 l 87 673 l 144 761 l 218 834 l 308 890 l 409 925 l 520 937 l 631 925 l 733 890 l 822 834 l 897 761 l 953 673 l 990 572 l 1003 463 m 520 73 l 637 91 l 740 142 l 663 211 l 586 278 l 509 347 l 610 347 l 701 266 l 791 186 l 851 265 l 891 358 l 904 463 l 891 567 l 852 660 l 791 738 l 714 799 l 623 839 l 520 852 l 418 839 l 327 799 l 248 738 l 189 660 l 150 567 l 136 463 l 150 358 l 189 265 l 248 187 l 327 126 l 418 86 l 520 73 "},"h":{"x_min":106.109375,"x_max":641.453125,"ha":726,"o":"m 382 622 l 489 601 l 570 546 l 623 463 l 641 357 l 641 238 l 641 119 l 641 0 l 561 0 l 561 117 l 561 234 l 561 352 l 536 450 l 467 520 l 369 546 l 271 525 l 186 464 l 186 348 l 186 232 l 186 115 l 186 0 l 106 0 l 106 103 l 106 205 l 106 308 l 106 411 l 106 514 l 106 617 l 106 720 l 106 822 l 106 926 l 186 926 l 186 800 l 186 674 l 186 548 l 276 602 l 382 622 "},"M":{"x_min":117.671875,"x_max":1018.59375,"ha":1136,"o":"m 1018 0 l 926 0 l 926 113 l 926 226 l 926 340 l 926 453 l 926 567 l 926 680 l 926 793 l 859 698 l 793 602 l 727 506 l 661 410 l 595 315 l 539 315 l 472 410 l 406 506 l 340 600 l 273 696 l 207 791 l 207 679 l 207 565 l 207 452 l 207 339 l 207 226 l 207 112 l 207 0 l 117 0 l 117 103 l 117 205 l 117 308 l 117 411 l 117 514 l 117 617 l 117 720 l 117 822 l 117 926 l 222 926 l 280 844 l 337 761 l 395 679 l 453 597 l 510 514 l 568 432 l 625 514 l 682 597 l 739 679 l 796 761 l 854 844 l 911 926 l 1018 926 l 1018 822 l 1018 720 l 1018 617 l 1018 514 l 1018 411 l 1018 308 l 1018 205 l 1018 103 l 1018 0 "},"C":{"x_min":38.578125,"x_max":864.265625,"ha":911,"o":"m 514 937 l 618 927 l 711 899 l 793 855 l 864 798 l 864 690 l 794 757 l 713 808 l 624 841 l 525 852 l 422 839 l 328 799 l 250 739 l 190 660 l 150 567 l 136 463 l 150 358 l 190 265 l 250 186 l 328 126 l 422 86 l 525 73 l 624 84 l 713 117 l 794 168 l 864 235 l 864 127 l 793 69 l 711 26 l 618 -1 l 514 -11 l 405 0 l 304 35 l 216 91 l 142 164 l 86 252 l 51 353 l 38 463 l 51 572 l 86 673 l 142 761 l 216 834 l 304 890 l 405 925 l 514 937 "},"f":{"x_min":59.796875,"x_max":378.109375,"ha":421,"o":"m 378 937 l 378 864 l 281 839 l 212 769 l 186 668 l 186 518 l 281 518 l 378 518 l 378 452 l 281 452 l 186 452 l 186 339 l 186 225 l 186 112 l 186 0 l 106 0 l 106 112 l 106 225 l 106 339 l 106 452 l 59 452 l 59 518 l 106 518 l 106 674 l 125 781 l 181 864 l 267 918 l 378 937 "},"L":{"x_min":137.9375,"x_max":675.203125,"ha":710,"o":"m 230 84 l 341 84 l 452 84 l 564 84 l 675 84 l 675 0 l 568 0 l 460 0 l 353 0 l 245 0 l 137 0 l 137 103 l 137 205 l 137 308 l 137 411 l 137 514 l 137 617 l 137 720 l 137 822 l 137 926 l 230 926 l 230 820 l 230 715 l 230 610 l 230 505 l 230 400 l 230 295 l 230 190 l 230 84 "},"i":{"x_min":106.109375,"x_max":215.109375,"ha":321,"o":"m 160 865 l 215 810 l 160 755 l 106 810 l 160 865 m 200 0 l 120 0 l 120 115 l 120 231 l 120 347 l 120 463 l 120 578 l 200 578 l 200 463 l 200 347 l 200 231 l 200 115 l 200 0 "},"A":{"x_min":70.421875,"x_max":887.421875,"ha":958,"o":"m 277 300 l 239 200 l 201 100 l 163 0 l 70 0 l 109 103 l 150 205 l 190 308 l 229 411 l 270 514 l 309 617 l 349 720 l 389 822 l 429 926 l 528 926 l 568 822 l 608 720 l 648 617 l 687 514 l 728 411 l 767 308 l 807 205 l 847 103 l 887 0 l 794 0 l 756 100 l 717 200 l 679 300 l 578 300 l 478 300 l 378 300 l 277 300 m 478 839 l 443 746 l 408 654 l 375 562 l 340 470 l 305 378 l 421 378 l 536 378 l 652 378 l 617 470 l 582 562 l 547 654 l 513 746 l 478 839 "},"n":{"x_min":106.109375,"x_max":641.453125,"ha":726,"o":"m 382 622 l 489 601 l 570 546 l 623 463 l 641 357 l 641 238 l 641 119 l 641 0 l 561 0 l 561 117 l 561 234 l 561 352 l 536 450 l 467 520 l 369 546 l 271 525 l 186 464 l 186 348 l 186 232 l 186 115 l 186 0 l 106 0 l 106 101 l 106 203 l 106 304 l 106 407 l 106 508 l 106 610 l 186 610 l 186 548 l 276 602 l 382 622 "},"O":{"x_min":38.578125,"x_max":1003.171875,"ha":1042,"o":"m 520 937 l 631 925 l 733 890 l 822 834 l 897 761 l 953 673 l 990 572 l 1003 463 l 990 353 l 953 252 l 897 164 l 822 91 l 733 35 l 631 0 l 520 -11 l 409 0 l 308 35 l 218 91 l 144 164 l 87 252 l 51 353 l 38 463 l 51 572 l 87 673 l 144 761 l 218 834 l 308 890 l 409 925 l 520 937 m 520 852 l 418 839 l 327 799 l 248 738 l 189 660 l 150 567 l 136 463 l 150 358 l 189 265 l 248 187 l 327 126 l 418 86 l 520 73 l 623 86 l 714 126 l 791 187 l 852 265 l 891 358 l 904 463 l 891 567 l 852 660 l 791 738 l 714 799 l 623 839 l 520 852 "}," ":{"x_min":0,"x_max":0,"ha":500},"X":{"x_min":34.71875,"x_max":839.1875,"ha":873,"o":"m 493 484 l 551 403 l 608 323 l 666 242 l 724 161 l 781 81 l 839 0 l 723 0 l 665 82 l 608 165 l 550 248 l 493 331 l 435 414 l 378 331 l 320 248 l 262 165 l 204 82 l 146 0 l 34 0 l 104 96 l 172 192 l 242 289 l 310 385 l 380 482 l 316 571 l 253 659 l 190 748 l 127 837 l 63 926 l 179 926 l 244 832 l 308 738 l 373 645 l 437 551 l 502 645 l 567 738 l 632 832 l 697 926 l 810 926 l 746 837 l 683 749 l 620 660 l 557 572 l 493 484 "},"P":{"x_min":117.671875,"x_max":681.953125,"ha":742,"o":"m 117 926 l 216 926 l 314 926 l 412 926 l 517 904 l 602 847 l 660 763 l 681 660 l 660 557 l 602 472 l 517 415 l 412 394 l 311 394 l 210 394 l 210 296 l 210 196 l 210 98 l 210 0 l 117 0 l 117 103 l 117 205 l 117 308 l 117 411 l 117 514 l 117 617 l 117 720 l 117 822 l 117 926 m 210 848 l 210 723 l 210 597 l 210 471 l 306 471 l 403 471 l 497 497 l 564 565 l 589 660 l 564 755 l 497 822 l 403 848 l 306 848 l 210 848 "},"m":{"x_min":106.109375,"x_max":1104.453125,"ha":1189,"o":"m 845 622 l 952 601 l 1033 546 l 1086 463 l 1104 357 l 1104 238 l 1104 119 l 1104 0 l 1024 0 l 1024 117 l 1024 234 l 1024 352 l 999 450 l 930 520 l 832 546 l 723 520 l 632 445 l 645 357 l 645 238 l 645 119 l 645 0 l 565 0 l 565 117 l 565 234 l 565 352 l 540 450 l 471 520 l 374 546 l 272 524 l 186 460 l 186 345 l 186 229 l 186 114 l 186 0 l 106 0 l 106 101 l 106 203 l 106 304 l 106 407 l 106 508 l 106 610 l 186 610 l 186 545 l 278 601 l 386 622 l 515 591 l 603 508 l 670 569 l 752 608 l 845 622 "},"l":{"x_min":108.03125,"x_max":380.046875,"ha":421,"o":"m 188 926 l 188 814 l 188 703 l 188 591 l 188 480 l 188 368 l 188 257 l 214 156 l 283 86 l 380 61 l 380 -11 l 269 7 l 183 61 l 127 144 l 108 251 l 108 363 l 108 476 l 108 588 l 108 701 l 108 813 l 108 926 l 188 926 "},"p":{"x_min":97.421875,"x_max":681.953125,"ha":726,"o":"m 371 622 l 470 606 l 556 562 l 623 493 l 666 407 l 681 304 l 666 203 l 624 116 l 558 48 l 473 3 l 374 -11 l 268 7 l 177 62 l 177 -31 l 177 -126 l 177 -220 l 177 -315 l 97 -315 l 97 -212 l 97 -109 l 97 -6 l 97 96 l 97 198 l 97 301 l 97 405 l 97 507 l 97 610 l 177 610 l 177 547 l 266 601 l 371 622 m 362 60 l 457 80 l 533 132 l 584 209 l 602 304 l 584 400 l 533 477 l 457 530 l 362 549 l 262 527 l 177 464 l 177 358 l 177 251 l 177 145 l 262 82 l 362 60 "},"R":{"x_min":130.21875,"x_max":753.34375,"ha":801,"o":"m 130 926 l 228 926 l 327 926 l 425 926 l 530 904 l 616 847 l 674 763 l 695 660 l 668 547 l 598 461 l 495 414 l 546 331 l 599 248 l 650 165 l 702 82 l 753 0 l 647 0 l 585 98 l 524 196 l 463 296 l 402 394 l 312 394 l 222 394 l 222 296 l 222 196 l 222 98 l 222 0 l 130 0 l 130 103 l 130 205 l 130 308 l 130 411 l 130 514 l 130 617 l 130 720 l 130 822 l 130 926 m 222 848 l 222 723 l 222 597 l 222 471 l 319 471 l 415 471 l 510 497 l 576 565 l 601 660 l 576 755 l 510 822 l 415 848 l 319 848 l 222 848 "},"o":{"x_min":43.40625,"x_max":681.953125,"ha":726,"o":"m 362 622 l 463 606 l 551 562 l 621 493 l 665 407 l 681 304 l 665 203 l 621 116 l 551 48 l 463 3 l 362 -11 l 261 3 l 173 48 l 105 116 l 59 203 l 43 304 l 59 407 l 105 493 l 173 562 l 261 606 l 362 622 m 362 549 l 269 530 l 193 477 l 141 400 l 123 304 l 141 209 l 193 132 l 269 80 l 362 60 l 456 80 l 532 132 l 583 209 l 602 304 l 583 400 l 532 477 l 456 530 l 362 549 "}}}
